<?xml version="1.0" encoding="utf-8"?>
<!-- Generator: Adobe Illustrator 16.0.0, SVG Export Plug-In . SVG Version: 6.00 Build 0)  -->
<!DOCTYPE svg PUBLIC "-//W3C//DTD SVG 1.1//EN" "http://www.w3.org/Graphics/SVG/1.1/DTD/svg11.dtd">
<svg version="1.1" id="Livello_1" xmlns="http://www.w3.org/2000/svg" xmlns:xlink="http://www.w3.org/1999/xlink" x="0px" y="0px"
	 width="233.461px" height="271.885px" viewBox="0 0 233.461 271.885" enable-background="new 0 0 233.461 271.885"
	 xml:space="preserve">
<path fill="#D64541" d="M116.73,4.421L2.83,70.182v45.186l29.731-22.064c1.035-0.768,2.3-1.151,3.589-1.113l52.241,1.941
	l52.455-30.028c1.743-0.999,3.889-0.999,5.633,0l48.279,27.64l2.891-4.241c0.877-1.288,2.149-1.193,2.826,0.211l9.615,19.958
	c0.678,1.405-0.042,2.458-1.597,2.342l-22.091-1.652c-1.555-0.115-2.108-1.266-1.23-2.554l3.182-4.667l-44.691-25.584
	l-51.044,29.221c-0.919,0.526-1.971,0.78-3.027,0.746l-51.872-1.927L2.83,129.486v72.218l12.359,7.136V165.36
	c0-2.07,1.68-3.75,3.75-3.75h34c2.072,0,3.75,1.68,3.75,3.75v67.439l12.361,7.137v-92.577c0-2.07,1.679-3.75,3.75-3.75h34
	c2.071,0,3.75,1.68,3.75,3.75v116.537l6.18,3.568l6.181-3.568v-147.37c0-2.07,1.679-3.75,3.75-3.75h34c2.071,0,3.75,1.68,3.75,3.75
	v123.41l12.36-7.136v-85.44c0-2.07,1.679-3.75,3.75-3.75h34c2.07,0,3.75,1.68,3.75,3.75v61.48l12.359-7.136V70.182L116.73,4.421z"/>
</svg>
